HIERARCHY
ROOT Hips
{
	OFFSET 0.000000 0.000000 0.000000
	CHANNELS 6 Xposition Yposition Zposition Zrotation Yrotation Xrotation 
	JOINT LHipJoint
	{
		OFFSET 0.000000 0.000000 0.000000
		CHANNELS 3 Zrotation Yrotation Xrotation
		JOINT LeftUpLeg
		{
			OFFSET 1.363060 -1.794630 0.839290
			CHANNELS 3 Zrotation Yrotation Xrotation
			JOINT LeftLeg
			{
				OFFSET 2.448110 -6.726130 0.000000
				CHANNELS 3 Zrotation Yrotation Xrotation
				JOINT LeftFoot
				{
					OFFSET 2.562200 -7.039590 0.000000
					CHANNELS 3 Zrotation Yrotation Xrotation
					JOINT LeftToeBase
					{
						OFFSET 0.157640 -0.433110 2.322550
						CHANNELS 3 Zrotation Yrotation Xrotation
						End Site
						{
							OFFSET 0.000000 0.000000 0.000000
						}
					}
				}
			}
		}
	}
	JOINT RHipJoint
	{
		OFFSET 0.000000 0.000000 0.000000
		CHANNELS 3 Zrotation Yrotation Xrotation
		JOINT RightUpLeg
		{
			OFFSET -1.305520 -1.794630 0.839290
			CHANNELS 3 Zrotation Yrotation Xrotation
			JOINT RightLeg
			{
				OFFSET -2.542530 -6.985550 0.000000
				CHANNELS 3 Zrotation Yrotation Xrotation
				JOINT RightFoot
				{
					OFFSET -2.568260 -7.056230 0.000000
					CHANNELS 3 Zrotation Yrotation Xrotation
					JOINT RightToeBase
					{
						OFFSET -0.164730 -0.452590 2.363150
						CHANNELS 3 Zrotation Yrotation Xrotation
						End Site
						{
							OFFSET 0.000000 0.000000 0.000000
						}
					}
				}
			}
		}
	}
	JOINT LowerBack
	{
		OFFSET 0.000000 0.000000 0.000000
		CHANNELS 3 Zrotation Yrotation Xrotation
		JOINT Spine
		{
			OFFSET 0.028270 2.035590 -0.193380
			CHANNELS 3 Zrotation Yrotation Xrotation
			JOINT Spine1
			{
				OFFSET 0.056720 2.048850 -0.042750
				CHANNELS 3 Zrotation Yrotation Xrotation
				JOINT Neck
				{
					OFFSET 0.000000 0.000000 0.000000
					CHANNELS 3 Zrotation Yrotation Xrotation
					JOINT Neck1
					{
						OFFSET -0.054170 1.746240 0.172020
						CHANNELS 3 Zrotation Yrotation Xrotation
						JOINT Head
						{
							OFFSET 0.104070 1.761360 -0.123970
							CHANNELS 3 Zrotation Yrotation Xrotation
							End Site
							{
								OFFSET 0.000000 0.000000 0.000000
							}
						}
					}
				}
				JOINT LeftShoulder
				{
					OFFSET 0.000000 0.000000 0.000000
					CHANNELS 3 Zrotation Yrotation Xrotation
					JOINT LeftArm
					{
						OFFSET 3.362410 1.200890 -0.311210
						CHANNELS 3 Zrotation Yrotation Xrotation
						JOINT LeftForeArm
						{
							OFFSET 4.983000 -0.000000 -0.000000
							CHANNELS 3 Zrotation Yrotation Xrotation
							JOINT LeftHand
							{
								OFFSET 3.483560 -0.000000 -0.000000
								CHANNELS 3 Zrotation Yrotation Xrotation
								JOINT LeftFingerBase
								{
									OFFSET 0.000000 0.000000 0.000000
									CHANNELS 3 Zrotation Yrotation Xrotation
									JOINT LeftHandIndex1
									{
										OFFSET 0.715260 -0.000000 -0.000000
										CHANNELS 3 Zrotation Yrotation Xrotation
										End Site
										{
											OFFSET 0.000000 0.000000 0.000000
										}
									}
								}
								JOINT LThumb
								{
									OFFSET 0.000000 0.000000 0.000000
									CHANNELS 3 Zrotation Yrotation Xrotation
									End Site
									{
										OFFSET 0.000000 0.000000 0.000000
									}
								}
							}
						}
					}
				}
				JOINT RightShoulder
				{
					OFFSET 0.000000 0.000000 0.000000
					CHANNELS 3 Zrotation Yrotation Xrotation
					JOINT RightArm
					{
						OFFSET -3.136600 1.374050 -0.404650
						CHANNELS 3 Zrotation Yrotation Xrotation
						JOINT RightForeArm
						{
							OFFSET -5.241900 -0.000000 -0.000000
							CHANNELS 3 Zrotation Yrotation Xrotation
							JOINT RightHand
							{
								OFFSET -3.444170 -0.000000 -0.000000
								CHANNELS 3 Zrotation Yrotation Xrotation
								JOINT RightFingerBase
								{
									OFFSET 0.000000 0.000000 0.000000
									CHANNELS 3 Zrotation Yrotation Xrotation
									JOINT RightHandIndex1
									{
										OFFSET -0.622530 -0.000000 -0.000000
										CHANNELS 3 Zrotation Yrotation Xrotation
										End Site
										{
											OFFSET 0.000000 0.000000 0.000000
										}
									}
								}
								JOINT RThumb
								{
									OFFSET 0.000000 0.000000 0.000000
									CHANNELS 3 Zrotation Yrotation Xrotation
									End Site
									{
										OFFSET 0.000000 0.000000 0.000000
									}
								}
							}
						}
					}
				}
			}
		}
	}
}
MOTION
Frames: 9
Frame Time: 0.008333
-11.079578 17.094094 -1.485826 135.730795 86.662105 160.924129 -11.593383 1.808981 -2.205608 -5.414356 2.256302 -12.822178 -0.913993 1.530012 29.430277 0.292733 -1.781180 10.008280 -0.547000 0.000000 -82.485600 7.718719 0.030939 1.713807 7.811339 9.086773 -41.012030 2.440557 -0.258435 15.190844 -0.602724 -2.237140 -0.539048 -0.917500 0.000000 -25.014800 4.581748 -1.646059 3.327842 0.087159 -1.809500 -2.221989 -6.880679 -1.828653 0.031741 13.637448 0.781180 3.403242 -4.296943 -0.381480 2.681305 0.000000 0.000000 0.000000 -1.597441 -4.597629 0.589255 -58.834424 -30.801119 12.062383 -1.125348 -69.407225 -0.059952 10.012188 -3.325222 -0.335523 -0.223132 0.441502 -0.000000 0.000000 0.000000 0.000000 0.000000 0.000000 0.000000 21.279080 -1.488193 0.944615 56.530015 13.054665 6.059203 2.120972 45.041626 0.005994 -0.472584 9.268695 -0.041524 0.038632 -0.143534 -0.000000 0.000000 0.000000 0.000000 0.000000 0.000000 0.000000 
-10.888234 17.075641 -1.463725 140.726727 86.838363 165.595051 -11.697377 1.788908 -2.322541 -4.776279 2.850249 -13.062530 -0.743347 1.660288 31.282500 0.349811 -2.202621 11.615473 -0.775400 0.000001 -82.922400 7.644215 -0.053322 1.714043 8.096908 9.959045 -40.920068 2.309546 -0.502820 17.760226 -0.784352 -2.749432 -2.013050 -0.877800 0.000000 -21.291800 5.146250 -1.577295 3.410496 0.191203 -1.762429 -2.219715 -6.912225 -1.784502 -0.003505 13.710696 1.165842 3.591006 -4.353804 -0.384854 2.728832 0.000000 0.000000 0.000000 -1.859430 -4.614626 0.583751 -58.883353 -29.986645 11.505962 -1.126074 -69.422065 -0.060506 10.247907 -3.544301 -0.363313 -0.224179 0.439938 -0.000000 0.000000 0.000000 0.000000 0.000000 0.000000 0.000000 21.554061 -1.260490 0.924882 56.634455 13.510198 5.319854 2.180703 43.427915 0.005818 -0.736593 9.650469 -0.066038 0.039826 -0.139678 -0.000000 0.000000 0.000000 0.000000 0.000000 0.000000 0.000000 
-10.698862 17.063258 -1.441138 146.849079 87.018135 171.379974 -11.774690 1.768215 -2.437255 -4.123627 3.427939 -13.395238 -0.572872 1.792860 33.217277 0.435457 -2.534790 13.408972 -1.018300 -0.000000 -82.481900 7.602622 -0.105045 1.676667 8.490316 10.671219 -40.666663 2.209333 -0.709600 20.064740 -0.956106 -3.209583 -3.529898 -0.800300 0.000001 -18.456100 5.715029 -1.517383 3.529735 0.294248 -1.722523 -2.212036 -6.940170 -1.748325 -0.046133 13.813565 1.616578 3.790715 -4.400121 -0.387563 2.779114 0.000000 0.000000 0.000000 -2.081965 -4.628955 0.576157 -59.037303 -29.083509 10.933721 -1.132124 -69.280341 -0.061358 10.563048 -3.760361 -0.394511 -0.225493 0.436812 -0.000000 0.000000 0.000000 0.000000 0.000000 0.000000 0.000000 21.811647 -0.967714 0.907654 56.820053 14.027661 4.441762 2.247006 41.545881 0.005680 -0.979988 10.008271 -0.090055 0.040737 -0.135194 -0.000000 0.000000 0.000000 0.000000 0.000000 0.000000 0.000000 
-10.511604 17.056781 -1.417775 153.702471 87.194107 177.891709 -11.831031 1.755018 -2.542617 -3.487758 3.967769 -13.824161 -0.414878 1.929735 35.216181 0.551179 -2.704504 15.294984 -1.239500 -0.000001 -81.041400 7.588351 -0.120517 1.599744 8.975297 11.199048 -40.239227 2.140520 -0.871655 22.043834 -1.112807 -3.609631 -5.029480 -0.692600 -0.000000 -16.506800 6.255032 -1.462170 3.679813 0.389336 -1.684870 -2.197045 -6.963443 -1.714720 -0.084214 13.944551 2.074934 3.980119 -4.437184 -0.389571 2.826247 0.000000 0.000000 0.000000 -2.259825 -4.630363 0.561494 -59.289859 -28.123349 10.363001 -1.143103 -68.967669 -0.062464 10.955673 -3.961552 -0.428319 -0.226917 0.431865 -0.000000 0.000000 0.000000 0.000000 0.000000 0.000000 0.000000 22.059909 -0.665238 0.894554 57.080670 14.677564 3.464577 2.321396 39.371923 0.005586 -1.234250 10.323144 -0.116274 0.041881 -0.130243 -0.000000 0.000000 0.000000 0.000000 0.000000 0.000000 0.000000 
-10.326443 17.055812 -1.393391 160.591161 87.350617 -175.560114 -11.885962 1.749776 -2.632903 -2.897269 4.457582 -14.350357 -0.277065 2.071278 37.263402 0.693930 -2.642748 17.160263 -1.389599 -0.000000 -78.559800 7.581636 -0.107800 1.484165 9.527986 11.525573 -39.638284 2.101415 -0.986274 23.666702 -1.250315 -3.940813 -6.455355 -0.564501 -0.000000 -15.370200 6.727901 -1.411997 3.853241 0.470277 -1.648889 -2.176312 -6.979401 -1.683186 -0.117039 14.102169 2.532473 4.153563 -4.462923 -0.390826 2.868966 0.000000 0.000000 0.000000 -2.394502 -4.621494 0.542311 -59.626312 -27.125370 9.810356 -1.158995 -68.471808 -0.063737 11.417713 -4.137892 -0.463639 -0.228329 0.424979 -0.000000 0.000000 0.000000 0.000000 0.000000 0.000000 0.000000 22.290147 -0.353482 0.885619 57.424629 15.440170 2.352335 2.400333 36.934730 0.005504 -1.499152 10.567010 -0.143892 0.043184 -0.125100 -0.000000 0.000000 0.000000 0.000000 0.000000 0.000000 0.000000 
-10.143372 17.059729 -1.367646 166.623999 87.455802 -169.864904 -11.955748 1.741580 -2.704756 -2.379386 4.882267 -14.968754 -0.157939 2.212461 39.345323 0.856809 -2.284914 18.882861 -1.410300 0.000000 -75.108800 7.564561 -0.087174 1.335737 10.115674 11.635151 -38.882442 2.089270 -1.058908 24.929545 -1.365485 -4.193586 -7.756823 -0.427200 -0.000000 -14.938100 7.103270 -1.374796 4.039028 0.534054 -1.621592 -2.154068 -6.984898 -1.661167 -0.151854 14.286633 3.012954 4.317497 -4.473145 -0.391283 2.909423 0.000000 0.000000 0.000000 -2.491321 -4.619003 0.526895 -60.027196 -26.099138 9.292826 -1.180058 -67.783006 -0.065055 11.935087 -4.281235 -0.498870 -0.229625 0.416190 -0.000000 0.000000 0.000000 0.000000 0.000000 0.000000 0.000000 22.484533 -0.000547 0.879501 57.866679 16.233082 1.013054 2.476015 34.310272 0.005362 -1.752046 10.706533 -0.169812 0.044180 -0.120099 -0.000000 0.000000 0.000000 0.000000 0.000000 0.000000 0.000000 
-9.962122 17.067908 -1.340237 171.193016 87.483463 -165.626365 -12.037101 1.717890 -2.758778 -1.949098 5.230660 -15.673474 -0.051380 2.346779 41.446538 1.031693 -1.582153 20.350068 -1.248700 0.000000 -70.893800 7.537525 -0.077560 1.164144 10.710462 11.525350 -38.004100 2.100699 -1.100207 25.847327 -1.455672 -4.362050 -8.887264 -0.292900 -0.000000 -15.076800 7.379822 -1.358238 4.225691 0.582289 -1.610655 -2.129808 -6.979634 -1.655934 -0.179200 14.492101 3.471083 4.456060 -4.470075 -0.391026 2.943405 0.000000 0.000000 0.000000 -2.557223 -4.620180 0.516691 -60.473107 -25.083956 8.836406 -1.206969 -66.887921 -0.066248 12.487437 -4.387988 -0.532610 -0.230666 0.405582 0.000000 0.000000 0.000000 0.000000 0.000000 0.000000 0.000000 22.649874 0.345343 0.874528 58.389780 17.090817 -0.520908 2.545458 31.520270 0.005122 -2.028429 10.739433 -0.196634 0.045176 -0.115523 -0.000000 0.000000 0.000000 0.000000 0.000000 0.000000 0.000000 
-9.782541 17.079692 -1.310885 174.149395 87.429848 -162.988204 -12.114200 1.675211 -2.796769 -1.613276 5.499626 -16.458269 0.047373 2.471308 43.545207 1.212127 -0.510925 21.472547 -0.872100 0.000000 -66.232800 7.514231 -0.086431 0.979842 11.289612 11.213084 -37.040816 2.130724 -1.120296 26.453310 -1.517727 -4.441779 -9.809084 -0.172900 -0.000000 -15.626000 7.573809 -1.361138 4.401849 0.618374 -1.615795 -2.106751 -6.964003 -1.667273 -0.203280 14.712966 3.919349 4.573216 -4.452368 -0.390084 2.972227 0.000000 0.000000 0.000000 -2.603138 -4.632637 0.517677 -60.942968 -24.095613 8.459873 -1.240223 -65.780275 -0.067131 13.049669 -4.456084 -0.563062 -0.231259 0.393316 0.000000 0.000000 0.000000 0.000000 0.000000 0.000000 0.000000 22.774669 0.703574 0.870179 58.989916 17.950746 -2.296049 2.601657 28.650022 0.004723 -2.325008 10.656090 -0.223055 0.045955 -0.111690 -0.000000 0.000000 0.000000 0.000000 0.000000 0.000000 0.000000 
-9.604310 17.094544 -1.279519 175.670132 87.310587 -161.765199 -12.173094 1.617159 -2.820452 -1.376715 5.692480 -17.318226 0.140723 2.586422 45.612458 1.394330 0.919240 22.192639 -0.278600 0.000000 -61.491000 7.507848 -0.112332 0.791988 11.832304 10.732432 -36.032275 2.172995 -1.126630 26.796625 -1.548741 -4.429789 -10.498611 -0.076600 -0.000001 -16.405699 7.699699 -1.375664 4.558693 0.644220 -1.630190 -2.085697 -6.939586 -1.688068 -0.220902 14.940313 4.342216 4.663925 -4.422097 -0.388558 2.994503 0.000000 0.000000 0.000000 -2.640395 -4.651146 0.531018 -61.417161 -23.160841 8.183582 -1.280503 -64.454880 -0.067522 13.593392 -4.486962 -0.588522 -0.231207 0.379542 0.000000 0.000000 0.000000 0.000000 0.000000 0.000000 0.000000 22.860740 1.062863 0.866718 59.645818 18.802709 -4.280494 2.640526 25.763679 0.004134 -2.664957 10.466184 -0.250677 0.046643 -0.108822 -0.000000 0.000000 0.000000 0.000000 0.000000 0.000000 0.000000 
